# xmcd
#
# Track frame offsets:
#  151
#  14833
#  24149
#  40955
#  52171
#  63059
#  75488
#  86546
#  99909
#  115776
#  127396
#  141621
#  152526
#  165145
#  175218
#  186017
#  198351
#  210473
#  221306
#  231731
#  243822
#  258576
#  271028
#  283059
#  293682
#
# Disc length: 4069 seconds
#
# Revision: 0
# Processed by: cddbd v1.4PL0 Copyright (c) Steve Scherf et al.
# Submitted via: AltoMP3_Maker 3.0
#
DISCID=5e0fe319
DTITLE=Various Artist - The unforgetable Love Songs Collections 8
DYEAR=1900
DGENRE=
TTITLE0=El Condor Pasa
TTITLE1=Rawhide
TTITLE2=Yesterday When I Was Young
TTITLE3=Summer Time
TTITLE4=The Ballad Of The Green Berets-s
TTITLE5=Michael
TTITLE6=Doggie In The Window
TTITLE7=9999999 Tears
TTITLE8=Leaving On A Jet Plane
TTITLE9=The Battle Of New Orleans
TTITLE10=The Last Waltz
TTITLE11=It's Bitsy Teenie Weenie Yellow Polka Dot Biking
TTITLE12=Today
TTITLE13=Rock Around The Clock
TTITLE14=The End
TTITLE15=Gone The Rainbow
TTITLE16=Everybody's Somebody's Fool
TTITLE17=Woolly Bully
TTITLE18=I've Told Every Little Star
TTITLE19=Hello Darling
TTITLE20=Woman Woman
TTITLE21=Crazy
TTITLE22=Keep Searching
TTITLE23=Hurt
TTITLE24=Save The Last Dance For Me
EXTD=
EXTT0=
EXTT1=
EXTT2=
EXTT3=
EXTT4=
EXTT5=
EXTT6=
EXTT7=
EXTT8=
EXTT9=
EXTT10=
EXTT11=
EXTT12=
EXTT13=
EXTT14=
EXTT15=
EXTT16=
EXTT17=
EXTT18=
EXTT19=
EXTT20=
EXTT21=
EXTT22=
EXTT23=
EXTT24=
PLAYORDER=
